# Blender 4.3.2
# www.blender.org
mtllib card3.mtl
o Plane
v -0.193050 0.000000 0.300000
v -0.214500 0.000000 0.270000
v -0.198602 0.000000 0.298978
v -0.203775 0.000000 0.295981
v -0.208217 0.000000 0.291213
v -0.211626 0.000000 0.285000
v -0.213769 0.000000 0.277765
v 0.214500 0.000000 0.270000
v 0.193050 0.000000 0.300000
v 0.213769 0.000000 0.277765
v 0.211626 0.000000 0.285000
v 0.208217 0.000000 0.291213
v 0.203775 0.000000 0.295981
v 0.198602 0.000000 0.298978
v -0.193050 0.000000 -0.300000
v -0.214500 0.000000 -0.270000
v -0.198602 0.000000 -0.298978
v -0.203775 0.000000 -0.295981
v -0.208217 0.000000 -0.291213
v -0.211626 0.000000 -0.285000
v -0.213769 0.000000 -0.277765
v 0.193050 0.000000 -0.300000
v 0.214500 0.000000 -0.270000
v 0.198602 0.000000 -0.298978
v 0.203775 0.000000 -0.295981
v 0.208217 0.000000 -0.291213
v 0.211626 0.000000 -0.285000
v 0.213769 0.000000 -0.277765
v -0.193050 -0.003000 0.300000
v -0.214500 -0.003000 0.270000
v -0.198602 -0.003000 0.298978
v -0.203775 -0.003000 0.295981
v -0.208217 -0.003000 0.291213
v -0.211626 -0.003000 0.285000
v -0.213769 -0.003000 0.277765
v 0.214500 -0.003000 0.270000
v 0.193050 -0.003000 0.300000
v 0.213769 -0.003000 0.277765
v 0.211626 -0.003000 0.285000
v 0.208217 -0.003000 0.291213
v 0.203775 -0.003000 0.295981
v 0.198602 -0.003000 0.298978
v -0.193050 -0.003000 -0.300000
v -0.214500 -0.003000 -0.270000
v -0.198602 -0.003000 -0.298978
v -0.203775 -0.003000 -0.295981
v -0.208217 -0.003000 -0.291213
v -0.211626 -0.003000 -0.285000
v -0.213769 -0.003000 -0.277765
v 0.193050 -0.003000 -0.300000
v 0.214500 -0.003000 -0.270000
v 0.198602 -0.003000 -0.298978
v 0.203775 -0.003000 -0.295981
v 0.208217 -0.003000 -0.291213
v 0.211626 -0.003000 -0.285000
v 0.213769 -0.003000 -0.277765
vn -0.0000 1.0000 -0.0000
vn -0.0000 -1.0000 -0.0000
vn -1.0000 -0.0000 -0.0000
vn -0.9956 -0.0000 0.0937
vn -0.9588 -0.0000 0.2840
vn -0.8767 -0.0000 0.4810
vn -0.7316 -0.0000 0.6817
vn -0.5013 -0.0000 0.8653
vn -0.1811 -0.0000 0.9835
vn -0.0000 -0.0000 1.0000
vn 0.1811 -0.0000 0.9835
vn 0.5013 -0.0000 0.8653
vn 0.7316 -0.0000 0.6817
vn 0.8767 -0.0000 0.4810
vn 0.9588 -0.0000 0.2840
vn 0.9956 -0.0000 0.0937
vn 1.0000 -0.0000 -0.0000
vn 0.9956 -0.0000 -0.0937
vn 0.9588 -0.0000 -0.2840
vn 0.8767 -0.0000 -0.4810
vn 0.7316 -0.0000 -0.6817
vn 0.5013 -0.0000 -0.8653
vn 0.1811 -0.0000 -0.9835
vn -0.0000 -0.0000 -1.0000
vn -0.1811 -0.0000 -0.9835
vn -0.5013 -0.0000 -0.8653
vn -0.7316 -0.0000 -0.6817
vn -0.8767 -0.0000 -0.4810
vn -0.9588 -0.0000 -0.2840
vn -0.9956 -0.0000 -0.0937
vt 0.000000 0.050000
vt 0.001704 0.037059
vt 0.006699 0.025000
vt 0.014645 0.014645
vt 0.025000 0.006699
vt 0.037059 0.001704
vt 0.050000 0.000000
vt 0.950000 0.000000
vt 0.962941 0.001704
vt 0.975000 0.006699
vt 0.985355 0.014645
vt 0.993301 0.025000
vt 0.998296 0.037059
vt 1.000000 0.050000
vt 1.000000 0.950000
vt 0.998296 0.962941
vt 0.993301 0.975000
vt 0.985355 0.985355
vt 0.975000 0.993301
vt 0.962941 0.998296
vt 0.950000 1.000000
vt 0.050000 1.000000
vt 0.037059 0.998296
vt 0.025000 0.993301
vt 0.014645 0.985355
vt 0.006699 0.975000
vt 0.001704 0.962941
vt 0.000000 0.950000
s 0
usemtl Front
f 2/1/1 7/2/1 6/3/1 5/4/1 4/5/1 3/6/1 1/7/1 9/8/1 14/9/1 13/10/1 12/11/1 11/12/1 10/13/1 8/14/1 23/15/1 28/16/1 27/17/1 26/18/1 25/19/1 24/20/1 22/21/1 15/22/1 17/23/1 18/24/1 19/25/1 20/26/1 21/27/1 16/28/1
usemtl Border
f 2/1/3 16/28/3 44/28/3 30/1/3
f 7/2/4 2/1/4 30/1/4 35/2/4
f 6/3/5 7/2/5 35/2/5 34/3/5
f 5/4/6 6/3/6 34/3/6 33/4/6
f 4/5/7 5/4/7 33/4/7 32/5/7
f 3/6/8 4/5/8 32/5/8 31/6/8
f 1/7/9 3/6/9 31/6/9 29/7/9
f 9/8/10 1/7/10 29/7/10 37/8/10
f 14/9/11 9/8/11 37/8/11 42/9/11
f 13/10/12 14/9/12 42/9/12 41/10/12
f 12/11/13 13/10/13 41/10/13 40/11/13
f 11/12/14 12/11/14 40/11/14 39/12/14
f 10/13/15 11/12/15 39/12/15 38/13/15
f 8/14/16 10/13/16 38/13/16 36/14/16
f 23/15/17 8/14/17 36/14/17 51/15/17
f 28/16/18 23/15/18 51/15/18 56/16/18
f 27/17/19 28/16/19 56/16/19 55/17/19
f 26/18/20 27/17/20 55/17/20 54/18/20
f 25/19/21 26/18/21 54/18/21 53/19/21
f 24/20/22 25/19/22 53/19/22 52/20/22
f 22/21/23 24/20/23 52/20/23 50/21/23
f 15/22/24 22/21/24 50/21/24 43/22/24
f 17/23/25 15/22/25 43/22/25 45/23/25
f 18/24/26 17/23/26 45/23/26 46/24/26
f 19/25/27 18/24/27 46/24/27 47/25/27
f 20/26/28 19/25/28 47/25/28 48/26/28
f 21/27/29 20/26/29 48/26/29 49/27/29
f 16/28/30 21/27/30 49/27/30 44/28/30
usemtl Back
f 30/1/2 44/28/2 49/27/2 48/26/2 47/25/2 46/24/2 45/23/2 43/22/2 50/21/2 52/20/2 53/19/2 54/18/2 55/17/2 56/16/2 51/15/2 36/14/2 38/13/2 39/12/2 40/11/2 41/10/2 42/9/2 37/8/2 29/7/2 31/6/2 32/5/2 33/4/2 34/3/2 35/2/2
