# Blender 4.4.0
# www.blender.org
mtllib aura.mtl
o Plane
v -0.164500 0.000000 0.300000
v -0.214500 0.000000 0.250000
v -0.172322 0.000000 0.299384
v -0.179951 0.000000 0.297553
v -0.187200 0.000000 0.294550
v -0.193889 0.000000 0.290451
v -0.199855 0.000000 0.285355
v -0.204951 0.000000 0.279389
v -0.209050 0.000000 0.272700
v -0.212053 0.000000 0.265451
v -0.213884 0.000000 0.257822
v 0.214500 0.000000 0.250000
v 0.164500 0.000000 0.300000
v 0.213884 0.000000 0.257822
v 0.212053 0.000000 0.265451
v 0.209050 0.000000 0.272700
v 0.204951 0.000000 0.279389
v 0.199855 0.000000 0.285355
v 0.193889 0.000000 0.290451
v 0.187200 0.000000 0.294550
v 0.179951 0.000000 0.297553
v 0.172322 0.000000 0.299384
v -0.164500 0.000000 -0.300000
v -0.214500 0.000000 -0.250000
v -0.172322 0.000000 -0.299384
v -0.179951 0.000000 -0.297553
v -0.187200 0.000000 -0.294550
v -0.193889 0.000000 -0.290451
v -0.199855 0.000000 -0.285355
v -0.204951 0.000000 -0.279389
v -0.209050 0.000000 -0.272700
v -0.212053 0.000000 -0.265451
v -0.213884 0.000000 -0.257822
v 0.164500 0.000000 -0.300000
v 0.214500 0.000000 -0.250000
v 0.172322 0.000000 -0.299384
v 0.179951 0.000000 -0.297553
v 0.187200 0.000000 -0.294550
v 0.193889 0.000000 -0.290451
v 0.199855 0.000000 -0.285355
v 0.204951 0.000000 -0.279389
v 0.209050 0.000000 -0.272700
v 0.212053 0.000000 -0.265451
v 0.213884 0.000000 -0.257822
vn -0.0000 1.0000 -0.0000
vt 0.000000 0.083333
vt 0.001435 0.070297
vt 0.005704 0.057582
vt 0.012703 0.045501
vt 0.022259 0.034351
vt 0.034137 0.024408
vt 0.048044 0.015915
vt 0.063637 0.009083
vt 0.080534 0.004079
vt 0.098318 0.001026
vt 0.116550 0.000000
vt 0.883450 0.000000
vt 0.901682 0.001026
vt 0.919466 0.004079
vt 0.936363 0.009083
vt 0.951956 0.015915
vt 0.965863 0.024408
vt 0.977741 0.034351
vt 0.987297 0.045501
vt 0.994296 0.057582
vt 0.998565 0.070297
vt 1.000000 0.083333
vt 1.000000 0.916667
vt 0.998565 0.929703
vt 0.994296 0.942418
vt 0.987297 0.954499
vt 0.977741 0.965649
vt 0.965863 0.975592
vt 0.951956 0.984085
vt 0.936363 0.990917
vt 0.919466 0.995921
vt 0.901682 0.998974
vt 0.883450 1.000000
vt 0.116550 1.000000
vt 0.098318 0.998974
vt 0.080534 0.995921
vt 0.063637 0.990917
vt 0.048044 0.984085
vt 0.034137 0.975592
vt 0.022259 0.965649
vt 0.012703 0.954499
vt 0.005704 0.942418
vt 0.001435 0.929703
vt 0.000000 0.916667
s 0
f 2/1/1 11/2/1 10/3/1 9/4/1 8/5/1 7/6/1 6/7/1 5/8/1 4/9/1 3/10/1 1/11/1 13/12/1 22/13/1 21/14/1 20/15/1 19/16/1 18/17/1 17/18/1 16/19/1 15/20/1 14/21/1 12/22/1 35/23/1 44/24/1 43/25/1 42/26/1 41/27/1 40/28/1 39/29/1 38/30/1 37/31/1 36/32/1 34/33/1 23/34/1 25/35/1 26/36/1 27/37/1 28/38/1 29/39/1 30/40/1 31/41/1 32/42/1 33/43/1 24/44/1
