# Blender 4.4.0
# www.blender.org
mtllib crsital_no_material.mtl
o Cylinder
v 0.000000 -1.000000 -1.000000
v 0.000000 1.000000 -1.000000
v 0.866025 -1.000000 -0.500000
v 0.866025 1.000000 -0.500000
v 0.866025 -1.000000 0.500000
v 0.866025 1.000000 0.500000
v 0.000000 -1.000000 1.000000
v 0.000000 1.000000 1.000000
v -0.866025 -1.000000 0.500000
v -0.866025 1.000000 0.500000
v -0.866025 -1.000000 -0.500000
v -0.866025 1.000000 -0.500000
v 0.000000 1.000000 -1.000000
v 0.866025 1.000000 -0.500000
v 0.866025 1.000000 0.500000
v 0.000000 1.000000 1.000000
v -0.866025 1.000000 0.500000
v -0.866025 1.000000 -0.500000
v 0.000000 2.000000 0.000000
v 0.000000 -1.000000 1.000000
v -0.866025 -1.000000 0.500000
v -0.866025 -1.000000 -0.500000
v 0.000000 -1.000000 -1.000000
v 0.866025 -1.000000 -0.500000
v 0.866025 -1.000000 0.500000
v 0.000000 -2.000000 0.000000
vn 0.5000 -0.0000 -0.8660
vn 1.0000 -0.0000 -0.0000
vn 0.5000 -0.0000 0.8660
vn -0.5000 -0.0000 0.8660
vn -0.0000 1.0000 -0.0000
vn -1.0000 -0.0000 -0.0000
vn -0.5000 -0.0000 -0.8660
vn -0.0000 -1.0000 -0.0000
vn 0.3780 0.6547 -0.6547
vn 0.7559 0.6547 -0.0000
vn 0.3780 0.6547 0.6547
vn -0.3780 0.6547 0.6547
vn -0.7559 0.6547 -0.0000
vn -0.3780 0.6547 -0.6547
vt 1.000000 0.500000
vt 1.000000 1.000000
vt 0.833333 1.000000
vt 0.833333 0.500000
vt 0.666667 1.000000
vt 0.666667 0.500000
vt 0.500000 1.000000
vt 0.500000 0.500000
vt 0.333333 1.000000
vt 0.333333 0.500000
vt 0.457846 0.370000
vt 0.250000 0.490000
vt 0.042154 0.370000
vt 0.042154 0.130000
vt 0.250000 0.010000
vt 0.457846 0.130000
vt 0.166667 1.000000
vt 0.166667 0.500000
vt -0.000000 1.000000
vt -0.000000 0.500000
vt 0.750000 0.490000
vt 0.957846 0.370000
vt 0.957846 0.130000
vt 0.750000 0.010000
vt 0.542154 0.130000
vt 0.542154 0.370000
vt 0.250000 0.250000
s 0
usemtl 
f 1/1/1 2/2/1 4/3/1 3/4/1
f 3/4/2 4/3/2 6/5/2 5/6/2
f 5/6/3 6/5/3 8/7/3 7/8/3
f 7/8/4 8/7/4 10/9/4 9/10/4
f 4/11/5 2/12/5 12/13/5 10/14/5 8/15/5 6/16/5
f 9/10/6 10/9/6 12/17/6 11/18/6
f 11/18/7 12/17/7 2/19/7 1/20/7
f 1/21/8 3/22/8 5/23/8 7/24/8 9/25/8 11/26/8
f 13/12/9 19/27/9 14/11/9
f 14/11/10 19/27/10 15/16/10
f 15/16/11 19/27/11 16/15/11
f 16/15/12 19/27/12 17/14/12
f 13/21/8 14/22/8 15/23/8 16/24/8 17/25/8 18/26/8
f 17/14/13 19/27/13 18/13/13
f 18/13/14 19/27/14 13/12/14
f 20/12/9 26/27/9 21/11/9
f 21/11/10 26/27/10 22/16/10
f 22/16/11 26/27/11 23/15/11
f 23/15/12 26/27/12 24/14/12
f 20/21/8 21/22/8 22/23/8 23/24/8 24/25/8 25/26/8
f 24/14/13 26/27/13 25/13/13
f 25/13/14 26/27/14 20/12/14
