# Blender 4.4.0
# www.blender.org
mtllib crystal_0.mtl
o Cone.001
v -0.866025 -1.000000 0.500000
v -0.866025 -1.000000 -0.500000
v 0.000000 -2.000000 0.000000
v 0.000000 -1.000000 -1.000000
v 0.866025 -1.000000 -0.500000
v 0.866025 1.000000 -0.500000
v 0.866025 -1.000000 0.500000
v 0.000000 -1.000000 1.000000
v -0.866025 1.000000 0.500000
v 0.000000 1.000000 -1.000000
v 0.866025 1.000000 0.500000
v 0.000000 1.000000 1.000000
v -0.866025 1.000000 -0.500000
v 0.000000 2.000000 0.000000
vn 0.3780 -0.6547 -0.6547
vn 0.7559 -0.6547 -0.0000
vn 0.3780 -0.6547 0.6547
vn -0.3780 -0.6547 0.6547
vn -0.0000 1.0000 -0.0000
vn -0.7559 -0.6547 -0.0000
vn -0.3780 -0.6547 -0.6547
vn 0.5000 -0.0000 -0.8660
vn 1.0000 -0.0000 -0.0000
vn 0.5000 -0.0000 0.8660
vn -0.5000 -0.0000 0.8660
vn -0.0000 -1.0000 -0.0000
vn -1.0000 -0.0000 -0.0000
vn -0.5000 -0.0000 -0.8660
vn 0.3780 0.6547 -0.6547
vn 0.7559 0.6547 -0.0000
vn 0.3780 0.6547 0.6547
vn -0.3780 0.6547 0.6547
vn -0.7559 0.6547 -0.0000
vn -0.3780 0.6547 -0.6547
vt 0.250000 0.490000
vt 0.250000 0.250000
vt 0.457846 0.370000
vt 0.457846 0.130000
vt 0.250000 0.010000
vt 0.042154 0.130000
vt 0.750000 0.490000
vt 0.957846 0.370000
vt 0.957846 0.130000
vt 0.750000 0.010000
vt 0.542154 0.130000
vt 0.542154 0.370000
vt 0.042154 0.370000
vt 1.000000 0.500000
vt 0.833333 0.500000
vt 0.833333 1.000000
vt 1.000000 1.000000
vt 0.666667 0.500000
vt 0.666667 1.000000
vt 0.500000 0.500000
vt 0.500000 1.000000
vt 0.333333 0.500000
vt 0.333333 1.000000
vt 0.166667 0.500000
vt 0.166667 1.000000
vt -0.000000 0.500000
vt -0.000000 1.000000
s 0
usemtl Material.001
f 4/1/1 5/3/1 3/2/1
f 5/3/2 7/4/2 3/2/2
f 7/4/3 8/5/3 3/2/3
f 8/5/4 1/6/4 3/2/4
f 4/7/5 2/12/5 1/11/5 8/10/5 7/9/5 5/8/5
f 1/6/6 2/13/6 3/2/6
f 2/13/7 4/1/7 3/2/7
f 4/14/8 10/17/8 6/16/8 5/15/8
f 5/15/9 6/16/9 11/19/9 7/18/9
f 7/18/10 11/19/10 12/21/10 8/20/10
f 8/20/11 12/21/11 9/23/11 1/22/11
f 6/3/12 11/4/12 12/5/12 9/6/12 13/13/12 10/1/12
f 1/22/13 9/23/13 13/25/13 2/24/13
f 2/24/14 13/25/14 10/27/14 4/26/14
f 10/1/15 14/2/15 6/3/15
f 6/3/16 14/2/16 11/4/16
f 11/4/17 14/2/17 12/5/17
f 12/5/18 14/2/18 9/6/18
f 9/6/19 14/2/19 13/13/19
f 13/13/20 14/2/20 10/1/20
